<?xml version="1.0" encoding="UTF-8"?>
<svg width="24px" height="24px" viewBox="0 0 24 24" version="1.1" xmlns="http://www.w3.org/2000/svg" xmlns:xlink="http://www.w3.org/1999/xlink">
    <!-- Generator: Sketch 61.2 (89653) - https://sketch.com -->
    <title>Icons/ComposeInput/Video-call</title>
    <desc>Created with Sketch.</desc>
    <g id="Icons/ComposeInput/Video-call" stroke="none" stroke-width="1" fill="none" fill-rule="evenodd">
        <rect id="Icon-Background" fill-opacity="0" fill="#D8D8D8" x="0" y="0" width="24" height="24"></rect>
        <path d="M3.14285714,6.7 L3.14285714,17.3 L15.1428571,17.3 L15.1428571,6.7 L3.14285714,6.7 Z M2.95238095,5.5 L15.3333333,5.5 C15.8593188,5.5 16.2857143,5.94771525 16.2857143,6.5 L16.2857143,17.5 C16.2857143,18.0522847 15.8593188,18.5 15.3333333,18.5 L2.95238095,18.5 C2.42639548,18.5 2,18.0522847 2,17.5 L2,6.5 C2,5.94771525 2.42639548,5.5 2.95238095,5.5 Z M18.3809524,13.4232502 L20.8571429,15.5032502 L20.8571429,8.49674982 L18.3809524,10.5767498 L18.3809524,13.4232502 Z M17.2380952,10 L20.4526714,7.29975604 C20.863397,6.95474649 21.4627231,7.02466786 21.7913036,7.4559298 C21.9263993,7.63324285 22,7.85355335 22,8.08062485 L22,15.9193752 C22,16.4716599 21.5736045,16.9193752 21.047619,16.9193752 C20.8313605,16.9193752 20.621541,16.8420944 20.4526714,16.700244 L17.2380952,14 L17.2380952,10 Z" id="Video-call" fill="#000000"></path>
    </g>
</svg>