<?xml version="1.0" encoding="UTF-8"?>
<svg width="24px" height="24px" viewBox="0 0 24 24" version="1.1" xmlns="http://www.w3.org/2000/svg" xmlns:xlink="http://www.w3.org/1999/xlink">
    <!-- Generator: Sketch 63.1 (92452) - https://sketch.com -->
    <title>Icons/ComposeInput/VOIP</title>
    <desc>Created with Sketch.</desc>
    <g id="Icons/ComposeInput/VOIP" stroke="none" stroke-width="1" fill="none" fill-rule="evenodd">
        <rect id="Icon-Background" fill-opacity="0" fill="#D8D8D8" x="0" y="0" width="24" height="24"></rect>
        <path d="M12.1428571,5.2 L12.1428571,9.8 L17.5061275,9.8 L17.5061275,5.2 L12.1428571,5.2 Z M11.952381,4 L17.6966037,4 C18.2225892,4 18.6489847,4.44771525 18.6489847,5 L18.6489847,10 C18.6489847,10.5522847 18.2225892,11 17.6966037,11 L11.952381,11 C11.4263955,11 11,10.5522847 11,10 L11,5 C11,4.44771525 11.4263955,4 11.952381,4 Z" id="Video-call" fill="#000000"></path>
        <path d="M5.67678116,3.00002608 C6.38735107,3.02374241 7.00284245,3.43632427 7.2842617,4.10292104 L8.57224589,7.52755713 C8.70428585,7.89066675 8.65572891,8.16582255 8.46333998,8.51825845 C8.11773346,9.12306946 7.40555271,10.4378638 7.03497909,11.1648991 C6.97980968,11.2673565 6.94953865,11.3844044 6.94953865,11.4941987 C6.94953865,11.6010049 6.98502875,11.7212768 7.05247857,11.8311239 C7.72078572,12.9656911 8.44643648,13.9356197 9.25062235,14.7398388 C10.0446611,15.5473352 11.0080847,16.2716866 12.1626435,16.9519151 C12.26781,17.0166329 12.3738135,17.0484339 12.4896705,17.0484339 C12.608479,17.0484339 12.7112076,17.0214001 12.829163,16.9579723 C13.4967502,16.6113407 14.7531677,15.9307817 15.4785429,15.5278189 C15.8175984,15.3428796 16.0702591,15.2969414 16.4381444,15.4195697 L19.9053403,16.7236738 C20.5381459,16.9913991 20.9498719,17.5957062 20.9959601,18.288426 C21.001225,18.3516048 21.0011945,18.4145415 20.9967383,18.4775955 C20.9875683,18.6073471 20.9609288,18.7306305 20.9221501,18.8552637 C20.9024886,18.9184549 20.879723,18.9808135 20.8660412,19.0166958 C20.212468,20.7958662 18.5327508,22 16.6181007,22 C16.1781307,22 15.7189979,21.9234779 15.4546602,21.8469461 C12.2082471,21.1049093 9.25393355,19.4519498 6.90120302,17.0992208 C4.54836695,14.7463863 2.8952572,11.7918082 2.14290829,8.48986919 C2.14394014,8.49709218 2.10081078,8.29484966 2.08001416,8.18187643 C2.02938679,7.90685396 2,7.64502597 2,7.38089362 C2,5.46531026 3.20439047,3.78523727 5.00254212,3.1250219 C5.05194463,3.10791992 5.11041971,3.08909235 5.18056806,3.07000726 C5.28594939,3.04133642 5.39066626,3.01987721 5.49694576,3.00843173 C5.54973575,3.00274666 5.60207929,2.99968253 5.67678116,3.00002608 Z M5.65432081,4.15890321 C5.58212681,4.16516176 5.53488725,4.17484237 5.48401084,4.18868419 C5.4439227,4.19959087 5.41280046,4.20961149 5.38184939,4.22009575 C4.05327939,4.70814155 3.15748088,5.95774201 3.15748088,7.38089362 C3.15748088,7.56497273 3.17941633,7.76041134 3.21831186,7.97170307 C3.23276523,8.05021795 3.2830606,8.28606338 3.28142252,8.28631735 C3.97445474,11.3183313 5.51898684,14.0788502 7.71905045,16.2789124 C9.91918943,18.4790499 12.6799005,20.0236875 15.7372058,20.723209 C15.9407748,20.7813715 16.2972218,20.8407793 16.6181007,20.8407793 C18.0419208,20.8407793 19.291777,19.9447987 19.7749018,18.6302698 C19.7974251,18.5687151 19.8076265,18.5407718 19.8170781,18.5103945 C19.8314324,18.4642605 19.8401579,18.4238802 19.8421459,18.3957513 C19.8235147,18.1012168 19.6763391,17.8852011 19.4730363,17.7987594 L16.0728146,16.5199158 C15.3059264,16.9493252 14.0405478,17.6347381 13.3683204,17.9837177 C13.0942876,18.1312737 12.80404,18.2076546 12.4896705,18.2076546 C12.1533174,18.2076546 11.8391173,18.1133946 11.5646567,17.9443902 C10.339391,17.2226588 9.2964636,16.4385324 8.42877678,15.5561153 C7.55430234,14.6816415 6.77076971,13.6343461 6.06036214,12.4281282 C5.8893884,12.1502961 5.79205777,11.8204536 5.79205777,11.4941987 C5.79205777,11.1898092 5.87112228,10.8840933 6.01108784,10.6244218 C6.38316521,9.89404822 7.10415737,8.56298663 7.454073,7.95082559 C7.46284265,7.93474791 7.04759725,6.79437991 6.2083368,4.52972161 C6.11507191,4.30927747 5.90353454,4.16747779 5.65432081,4.15890321 Z" id="Phonecall" fill="#000000"></path>
        <path d="M20.6610207,5.26613376 L19.1567866,6.57192918 L19.1567866,8.42807082 L20.6610207,9.73386624 C20.7701577,9.82860584 20.9098231,9.88076985 21.0543446,9.88076985 C21.3857154,9.88076985 21.6543446,9.6121407 21.6543446,9.28076985 L21.6543446,5.71923015 C21.6543446,5.57470864 21.6021806,5.43504323 21.507441,5.32590628 C21.2902142,5.07566805 20.9112589,5.04890699 20.6610207,5.26613376 Z M20.654,6.596 L20.654,8.403 L20.156,7.971 L20.156,7.028 L20.654,6.596 Z" id="矩形" fill="#000000" fill-rule="nonzero"></path>
    </g>
</svg>