<?xml version="1.0" encoding="UTF-8"?>
<svg width="24px" height="24px" viewBox="0 0 24 24" version="1.1" xmlns="http://www.w3.org/2000/svg" xmlns:xlink="http://www.w3.org/1999/xlink">
    <!-- Generator: Sketch 61.2 (89653) - https://sketch.com -->
    <title>Icons/ComposeInput/Phonecall</title>
    <desc>Created with Sketch.</desc>
    <g id="Icons/ComposeInput/Phonecall" stroke="none" stroke-width="1" fill="none" fill-rule="evenodd">
        <rect id="Icon-Background" fill-opacity="0" fill="#D8D8D8" x="0" y="0" width="24" height="24"></rect>
        <path d="M6.17678116,2.50002608 C6.88735107,2.52374241 7.50284245,2.93632427 7.7842617,3.60292104 L9.07224589,7.02755713 C9.20428585,7.39066675 9.15572891,7.66582255 8.96333998,8.01825845 C8.61773346,8.62306946 7.90555271,9.93786382 7.53497909,10.6648991 C7.47980968,10.7673565 7.44953865,10.8844044 7.44953865,10.9941987 C7.44953865,11.1010049 7.48502875,11.2212768 7.55247857,11.3311239 C8.22078572,12.4656911 8.94643648,13.4356197 9.75062235,14.2398388 C10.5446611,15.0473352 11.5080847,15.7716866 12.6626435,16.4519151 C12.76781,16.5166329 12.8738135,16.5484339 12.9896705,16.5484339 C13.108479,16.5484339 13.2112076,16.5214001 13.329163,16.4579723 C13.9967502,16.1113407 15.2531677,15.4307817 15.9785429,15.0278189 C16.3175984,14.8428796 16.5702591,14.7969414 16.9381444,14.9195697 L20.4053403,16.2236738 C21.0381459,16.4913991 21.4498719,17.0957062 21.4959601,17.788426 C21.501225,17.8516048 21.5011945,17.9145415 21.4967383,17.9775955 C21.4875683,18.1073471 21.4609288,18.2306305 21.4221501,18.3552637 C21.4024886,18.4184549 21.379723,18.4808135 21.3660412,18.5166958 C20.712468,20.2958662 19.0327508,21.5 17.1181007,21.5 C16.6781307,21.5 16.2189979,21.4234779 15.9546602,21.3469461 C12.7082471,20.6049093 9.75393355,18.9519498 7.40120302,16.5992208 C5.04836695,14.2463863 3.3952572,11.2918082 2.64290829,7.98986919 C2.64394014,7.99709218 2.60081078,7.79484966 2.58001416,7.68187643 C2.52938679,7.40685396 2.5,7.14502597 2.5,6.88089362 C2.5,4.96531026 3.70439047,3.28523727 5.50254212,2.6250219 C5.55194463,2.60791992 5.61041971,2.58909235 5.68056806,2.57000726 C5.78594939,2.54133642 5.89066626,2.51987721 5.99694576,2.50843173 C6.04973575,2.50274666 6.10207929,2.49968253 6.17678116,2.50002608 Z M6.15432081,3.65890321 C6.08212681,3.66516176 6.03488725,3.67484237 5.98401084,3.68868419 C5.9439227,3.69959087 5.91280046,3.70961149 5.88184939,3.72009575 C4.55327939,4.20814155 3.65748088,5.45774201 3.65748088,6.88089362 C3.65748088,7.06497273 3.67941633,7.26041134 3.71831186,7.47170307 C3.73276523,7.55021795 3.7830606,7.78606338 3.78142252,7.78631735 C4.47445474,10.8183313 6.01898684,13.5788502 8.21905045,15.7789124 C10.4191894,17.9790499 13.1799005,19.5236875 16.2372058,20.223209 C16.4407748,20.2813715 16.7972218,20.3407793 17.1181007,20.3407793 C18.5419208,20.3407793 19.791777,19.4447987 20.2749018,18.1302698 C20.2974251,18.0687151 20.3076265,18.0407718 20.3170781,18.0103945 C20.3314324,17.9642605 20.3401579,17.9238802 20.3421459,17.8957513 C20.3235147,17.6012168 20.1763391,17.3852011 19.9730363,17.2987594 L16.5728146,16.0199158 C15.8059264,16.4493252 14.5405478,17.1347381 13.8683204,17.4837177 C13.5942876,17.6312737 13.30404,17.7076546 12.9896705,17.7076546 C12.6533174,17.7076546 12.3391173,17.6133946 12.0646567,17.4443902 C10.839391,16.7226588 9.7964636,15.9385324 8.92877678,15.0561153 C8.05430234,14.1816415 7.27076971,13.1343461 6.56036214,11.9281282 C6.3893884,11.6502961 6.29205777,11.3204536 6.29205777,10.9941987 C6.29205777,10.6898092 6.37112228,10.3840933 6.51108784,10.1244218 C6.88316521,9.39404822 7.60415737,8.06298663 7.954073,7.45082559 C7.96284265,7.43474791 7.54759725,6.29437991 6.7083368,4.02972161 C6.61507191,3.80927747 6.40353454,3.66747779 6.15432081,3.65890321 Z" id="Phonecall" fill="#000000"></path>
    </g>
</svg>