<?xml version="1.0" encoding="UTF-8"?>
<svg width="20px" height="16px" viewBox="0 0 20 16" version="1.1" xmlns="http://www.w3.org/2000/svg" xmlns:xlink="http://www.w3.org/1999/xlink">
    <!-- Generator: Sketch 61 (89581) - https://sketch.com -->
    <title>3.Icons/Outlined/time</title>
    <desc>Created with Sketch.</desc>
    <g id="200518_Mac微信.通讯录管理器.交互" stroke="none" stroke-width="1" fill="none" fill-rule="evenodd" fill-opacity="0.9">
        <g id="画板备份-17" transform="translate(-16.000000, -145.000000)" fill="#000000">
            <g id="外框">
                <g id="编组-4" transform="translate(16.000000, 143.000000)">
                    <g id="0.图标/线型/icons_outlined_group_detail">
                        <g id="icon14">
                            <path d="M1.83333333,16.5 L15.6666667,16.5 L15.6666667,16.0962194 C15.6666667,15.9050495 15.4705658,15.5916833 15.2998413,15.5084061 L10.5828801,13.2075334 C9.31072858,12.5869943 8.99631064,11.0857609 9.90778049,10.0053071 L10.2090576,9.64817397 C10.6684958,9.1035572 11.0833333,7.97032578 11.0833333,7.25848807 L11.0833333,5.83350622 C11.0833333,4.54576183 10.0379915,3.5 8.75,3.5 C7.4635907,3.5 6.41666667,4.54600225 6.41666667,5.83298365 L6.41666667,7.25774211 C6.41666667,7.97138657 6.82978894,9.10040317 7.29089868,9.64692646 L7.59217579,10.0040106 C8.50553035,11.0865501 8.1876786,12.5863753 6.91726621,13.2063224 L2.20030525,15.5081472 C2.03084758,15.5908406 1.83333333,15.9072309 1.83333333,16.0962194 L1.83333333,16.5 Z M8.75,2.5 C9.74883293,2.5 10.6450568,2.93984166 11.2559833,3.6360182 L11.2467453,3.62553528 L11.2467453,3.62553528 C11.6242335,3.43855344 12.0499653,3.33333333 12.5,3.33333333 C14.050273,3.33333333 15.3070175,4.57845849 15.3070175,6.11125519 L15.3070175,7.29874006 C15.3070175,8.08978885 14.8866192,9.22420858 14.3723419,9.82748127 L14.1186348,10.1250922 C13.704935,10.6103824 13.8341668,11.2280539 14.412666,11.5072989 L18.3848438,13.4246928 C18.8166326,13.6331198 19.1666667,14.1841459 19.1666667,14.6635162 L19.1666667,15.1399735 C19.1666667,15.5229056 18.8502278,15.8333333 18.463909,15.8333333 L16.6397044,15.8333333 C16.625838,15.7637172 16.6068469,15.6939415 16.5832551,15.6248236 C16.6368551,15.7819444 16.6666667,15.9421654 16.6666667,16.0962194 L16.6666667,16.6679682 C16.6666667,17.1274867 16.2908955,17.5 15.832142,17.5 L1.66785801,17.5 C1.20696276,17.5 0.833333333,17.1297962 0.833333333,16.6679682 L0.833333333,16.0962194 C0.833333333,15.525312 1.24845909,14.8599232 1.76174801,14.6094439 L6.47870897,12.3076192 C7.16281427,11.9737834 7.32188255,11.2343854 6.82787102,10.6488657 L6.52659391,10.2917817 C5.91359802,9.56523763 5.41666667,8.20791373 5.41666667,7.25774211 L5.41666667,5.83298365 C5.41666667,3.99222761 6.9127968,2.5 8.75,2.5 Z M12.5,4.33333333 C12.2495655,4.33333333 12.0110769,4.38362822 11.7942969,4.47442119 L11.854108,4.61693647 C12.0020813,4.99393461 12.0833333,5.40432315 12.0833333,5.83350622 L12.0833333,7.25848807 C12.0833333,8.20774662 11.5841103,9.56905029 10.973406,10.2929775 L10.6721288,10.6501106 C10.1808603,11.2324589 10.3343231,11.9736647 11.0212908,12.3087587 L15.738252,14.6096313 C15.854367,14.6662707 15.9655034,14.7439932 16.0679613,14.8370259 L16.0638812,14.8333333 L18.1666667,14.8333333 L18.1666667,14.6635162 C18.1666667,14.5704966 18.0385879,14.3679606 17.9501332,14.325263 L13.9779554,12.4078691 C12.8106635,11.8444104 12.5179442,10.4613388 13.3576272,9.47634916 L13.6113343,9.17873826 C13.972325,8.75527835 14.3070175,7.85050667 14.3070175,7.29874006 L14.3070175,6.11125519 C14.3070175,5.13252386 13.4997388,4.33333333 12.5,4.33333333 Z" id="Combined-Shape"></path>
                        </g>
                    </g>
                </g>
            </g>
        </g>
    </g>
</svg>