<?xml version="1.0" encoding="UTF-8"?>
<svg width="24px" height="24px" viewBox="0 0 24 24" version="1.1" xmlns="http://www.w3.org/2000/svg" xmlns:xlink="http://www.w3.org/1999/xlink">
    <title>0.图标/01.线性/icons_outlined_favorites</title>
    <g id="0.图标/01.线性/icons_outlined_favorites" stroke="none" stroke-width="1" fill="none" fill-rule="evenodd" fill-opacity="0.9">
        <path d="M12.8629578,2.20843322 L20.1370422,6.45164908 C20.6136406,6.72966484 21,7.40621302 21,7.95232187 L21,16.4577604 C21,17.0085434 20.6132813,17.6806271 20.1370422,17.9584332 L12.8629578,22.2016491 C12.3863594,22.4796648 11.6132812,22.4794552 11.1370422,22.2016491 L3.86295784,17.9584332 C3.38635938,17.6804175 3,17.0038693 3,16.4577604 L3,7.95232187 C3,7.40153894 3.38671875,6.72945521 3.86295784,6.45164908 L11.1370422,2.20843322 C11.6136406,1.93041745 12.3867187,1.93062709 12.8629578,2.20843322 Z M19.799,8.394 L12.599,12.551 L12.599,20.966 L19.5323969,16.9218985 C19.6403321,16.8589364 19.8,16.5813289 19.8,16.4577604 L19.799,8.394 Z M4.199,8.394 L4.2,16.4577604 C4.2,16.5788746 4.36122385,16.859844 4.46760307,16.9218985 L11.399,20.965 L11.399,12.551 L4.199,8.394 Z M11.7416874,3.2449679 L4.747,7.325 L11.999,11.512 L19.252,7.325 L12.2583126,3.2449679 C12.1555512,3.18502375 11.8444935,3.18499766 11.7416874,3.2449679 Z" id="Mask" fill="#000000"></path>
    </g>
</svg>