<?xml version="1.0" encoding="UTF-8"?>
<svg width="24px" height="24px" viewBox="0 0 24 24" version="1.1" xmlns="http://www.w3.org/2000/svg" xmlns:xlink="http://www.w3.org/1999/xlink">
    <!-- Generator: Sketch 57.1 (83088) - https://sketch.com -->
    <title>0.图标/01.线性/icons_outlined_folder</title>
    <desc>Created with Sketch.</desc>
    <g id="0.图标/01.线性/icons_outlined_folder" stroke="none" stroke-width="1" fill="none" fill-rule="evenodd" fill-opacity="0.9">
        <path d="M9.4125,5 L11.19375,6.40625 L21.05,6.40625 C21.5746705,6.40625 22,6.82598305 22,7.34375 L22,9.6875 L22,10.8125 L22,19.0625 C22,19.580267 21.5746705,20 21.05,20 L3.95,20 C3.42532949,20 3,19.580267 3,19.0625 L3,5.9375 C3,5.41973305 3.42532949,5 3.95,5 L9.4125,5 Z M20.86,10.812 L4.14,10.812 L4.14,18.875 L20.86,18.875 L20.86,10.812 Z M9.01260959,6.125 L4.14,6.125 L4.14,9.687 L20.86,9.687 L20.86,7.53125 L10.7938596,7.53125 L9.01260959,6.125 Z" id="Folder" fill="#000000"></path>
    </g>
</svg>