<?xml version="1.0" encoding="UTF-8"?>
<svg width="24px" height="24px" viewBox="0 0 24 24" version="1.1" xmlns="http://www.w3.org/2000/svg" xmlns:xlink="http://www.w3.org/1999/xlink">
    <title>切片</title>
    <g id="页面-1" stroke="none" stroke-width="1" fill="none" fill-rule="evenodd">
        <rect id="矩形" x="0" y="0" width="24" height="24"></rect>
        <g id="编组-19">
            <path d="M12,2.40039026 C17.3019336,2.40039026 21.6,6.69915557 21.6,12.0019513 C21.6,15.9894714 19.1696485,19.4092602 15.7096412,20.8603941 L15.6350375,20.9343588 L15.6052764,20.9034404 C14.5747804,21.3213587 13.4552546,21.5654715 12.2830531,21.5994188 L12,21.6035124 C6.6980664,21.6035124 2.4,17.3047471 2.4,12.0019513 C2.4,6.79384835 6.54593459,2.55423776 11.7169469,2.40448384 L12,2.40039026 Z M9.21952736,14.4937432 L9.22060187,20.1301374 C10.0923392,20.4282448 11.027281,20.5900143 12,20.5900143 C12.9869029,20.5900143 13.934919,20.4234926 14.8174921,20.1170097 L9.47023352,14.7685524 L9.48159082,14.7584053 C9.38992379,14.6745807 9.3024521,14.5862427 9.21952736,14.4937432 Z M8.27254756,11.7905852 L4.28574243,15.7780509 C5.13164226,17.5034627 6.53917965,18.9034443 8.27000294,19.7396051 L8.26996743,12.1604042 C8.26777421,12.1078599 8.26666667,12.0550349 8.26666667,12.0019513 C8.26666667,11.9310166 8.26864435,11.8605438 8.27254756,11.7905852 Z M11.7744799,15.7291912 L15.7668286,19.7217028 C17.4804537,18.8837034 18.8738246,17.4917485 19.7137681,15.7790491 L12.0707133,15.7790987 L12.0710338,15.7352294 C12.0474089,15.7356703 12.0237303,15.7358917 12,15.7358917 C11.924279,15.7358917 11.8490845,15.7336371 11.7744799,15.7291912 Z M9.56132782,9.17463505 L3.88957397,9.17447579 C3.58102812,10.0598953 3.41333333,11.0113365 3.41333333,12.0019513 C3.41333333,12.9927479 3.58108969,13.9443566 3.88974389,14.8299144 L9.33112633,9.38806763 C9.40595456,9.3145857 9.48219135,9.24297668 9.56132782,9.17463505 Z M20.1405295,9.26240214 L14.7555536,14.6437613 L14.6956603,14.5852443 C14.6139059,14.6705599 14.5281422,14.752002 14.4386722,14.8292676 L20.1106049,14.8289134 C20.4190367,13.9436395 20.5866667,12.9923746 20.5866667,12.0019513 C20.5866667,11.0440473 20.4298638,10.1227724 20.1405295,9.26240214 Z M12,9.22816701 C10.4683303,9.22816701 9.22666667,10.4700325 9.22666667,12.0019513 C9.22666667,13.5338701 10.4683303,14.7757356 12,14.7757356 C13.5316697,14.7757356 14.7733333,13.5338701 14.7733333,12.0019513 C14.7733333,10.4700325 13.5316697,9.22816701 12,9.22816701 Z M15.8293151,4.31307321 L15.8298667,12.184117 L15.728,12.1833903 L15.7281584,12.200257 C15.725722,12.2468269 15.7224323,12.2931708 15.7183049,12.3392734 L19.7531705,8.30628411 C18.9277991,6.57727125 17.541276,5.16761693 15.8293151,4.31307321 Z M12,3.41388837 C11.0351195,3.41388837 10.1074097,3.57306118 9.2416884,3.86658508 L14.5969286,9.22287594 L14.5471649,9.27206939 C14.6657066,9.38276032 14.777032,9.50108382 14.880358,9.62625692 L14.879471,3.90868389 C13.9793582,3.58831121 13.0100451,3.41388837 12,3.41388837 Z M4.28685784,8.22357746 L12.0533333,8.22432787 L12.053,8.26839026 L12.1982734,8.27318665 C12.2366571,8.27519549 12.2748872,8.27778417 12.3129552,8.2809441 L8.28695838,4.2561294 C6.54913381,5.09095862 5.13564141,6.4935799 4.28685784,8.22357746 Z" id="Combined-Shape" fill-opacity="0.9" fill="#000000"></path>
            <rect id="BG" fill-opacity="0" fill="#FFFFFF" x="0" y="0" width="24" height="24.0039026"></rect>
        </g>
    </g>
</svg>