<?xml version="1.0" encoding="UTF-8"?>
<svg width="32px" height="32px" viewBox="0 0 32 32" version="1.1" xmlns="http://www.w3.org/2000/svg" xmlns:xlink="http://www.w3.org/1999/xlink">
    <!-- Generator: Sketch 61.2 (89653) - https://sketch.com -->
    <title>Icons/Navigation Bar/Contacts</title>
    <desc>Created with Sketch.</desc>
    <g id="Icons/Navigation-Bar/Contacts" stroke="none" stroke-width="1" fill="none" fill-rule="evenodd">
        <rect id="Icon-Background" fill-opacity="0" fill="#000000" x="0" y="0" width="32" height="32"></rect>
        <path d="M23.7272727,24.6666667 L23.7272727,24.1282926 C23.7272727,23.8733993 23.4598625,23.4555777 23.2270563,23.3445414 L16.7948365,20.2767112 C15.0600844,19.4493258 14.6313327,17.4476812 15.8742461,16.0070761 L16.2850786,15.5308986 C16.9115852,14.8047429 17.4772727,13.2937677 17.4772727,12.3446508 L17.4772727,10.444675 C17.4772727,8.72768244 16.0518066,7.33333333 14.2954545,7.33333333 C12.5412601,7.33333333 11.1136364,8.728003 11.1136364,10.4439782 L11.1136364,12.3436561 C11.1136364,13.2951821 11.6769849,14.8005376 12.3057709,15.5292353 L12.7166034,16.0053474 C13.9620868,17.4487335 13.5286526,19.4485003 11.7962721,20.2750966 L5.36405261,23.3441962 C5.13297397,23.4544542 4.86363636,23.8763079 4.86363636,24.1282926 L4.86363636,24.6666667 L23.7272727,24.6666667 Z M14.2954545,6 C16.8058398,6 18.8409091,7.99220025 18.8409091,10.444675 L18.8409091,12.3446508 C18.8409091,13.6103288 18.1601504,15.4254004 17.3273718,16.3906367 L16.9165393,16.8668141 C16.2466277,17.6432785 16.4558951,18.6315529 17.3926693,19.0783449 L23.824889,22.1461751 C24.5240926,22.4796584 25.0909091,23.3613001 25.0909091,24.1282926 L25.0909091,24.8888889 C25.0909091,25.5025386 24.5821418,26 23.9545455,26 L4.63636364,26 C4.00876733,26 3.5,25.5025386 3.5,24.8888889 L3.5,24.1282926 C3.5,23.3670826 4.06608058,22.4798976 4.76602001,22.1459252 L11.1982395,19.0768256 C12.1311104,18.6317111 12.3480217,17.6458472 11.6743696,16.8651543 L11.2635372,16.3890422 C10.4276337,15.4203168 9.75,13.6105516 9.75,12.3436561 L9.75,10.4439782 C9.75,7.98963681 11.7901774,6 14.2954545,6 Z M28.5,18.7777778 L28.5,20.1111112 L25.0909091,20.1111112 L25.0909091,18.7777778 L28.5,18.7777778 Z M28.5,15.4444444 L28.5,16.7777778 L22.8181818,16.7777778 L22.8181818,15.4444444 L28.5,15.4444444 Z M28.5,12.1111111 L28.5,13.4444445 L20.5454545,13.4444445 L20.5454545,12.1111111 L28.5,12.1111111 Z" id="Contacts" fill="#000000"></path>
    </g>
</svg>