<?xml version="1.0" encoding="UTF-8"?>
<svg width="24px" height="24px" viewBox="0 0 24 24" version="1.1" xmlns="http://www.w3.org/2000/svg" xmlns:xlink="http://www.w3.org/1999/xlink">
    <title>0.图标/01.线性/icons_outlined_menu(导航栏用)</title>
    <g id="0.图标/01.线性/icons_outlined_menu(导航栏用)" stroke="none" stroke-width="1" fill="none" fill-rule="evenodd" fill-opacity="0.9">
        <path d="M19.5,17.57 C19.7761424,17.57 20,17.7938576 20,18.07 L20,18.27 C20,18.5461424 19.7761424,18.77 19.5,18.77 L4.5,18.77 C4.22385763,18.77 4,18.5461424 4,18.27 L4,18.07 C4,17.7938576 4.22385763,17.57 4.5,17.57 L19.5,17.57 Z M19.5,11.3718223 C19.7761424,11.3718223 20,11.5956799 20,11.8718223 L20,12.0718223 C20,12.3479647 19.7761424,12.5718223 19.5,12.5718223 L4.5,12.5718223 C4.22385763,12.5718223 4,12.3479647 4,12.0718223 L4,11.8718223 C4,11.5956799 4.22385763,11.3718223 4.5,11.3718223 L19.5,11.3718223 Z M19.5,5.17 C19.7761424,5.17 20,5.39385763 20,5.67 L20,5.87 C20,6.14614237 19.7761424,6.37 19.5,6.37 L4.5,6.37 C4.22385763,6.37 4,6.14614237 4,5.87 L4,5.67 C4,5.39385763 4.22385763,5.17 4.5,5.17 L19.5,5.17 Z" id="Settings" fill="#000000"></path>
    </g>
</svg>