<?xml version="1.0" encoding="UTF-8"?>
<svg width="32px" height="32px" viewBox="0 0 32 32" version="1.1" xmlns="http://www.w3.org/2000/svg" xmlns:xlink="http://www.w3.org/1999/xlink">
    <!-- Generator: Sketch 61.2 (89653) - https://sketch.com -->
    <title>Icons/Navigation Bar/Contacts - Active</title>
    <desc>Created with Sketch.</desc>
    <g id="Icons/Navigation-Bar/Contacts---Active" stroke="none" stroke-width="1" fill="none" fill-rule="evenodd">
        <rect id="Icon-Background" fill-opacity="0" fill="#000000" x="0" y="0" width="32" height="32"></rect>
        <path d="M14.2954545,6 C16.8058398,6 18.8409091,7.99220025 18.8409091,10.444675 L18.8409091,12.3446508 C18.8409091,13.6103288 18.1601504,15.4254004 17.3273718,16.3906367 L16.9165393,16.8668141 C16.2466277,17.6432785 16.4558951,18.6315529 17.3926693,19.0783449 L23.824889,22.1461751 C24.5240926,22.4796584 25.0909091,23.3613001 25.0909091,24.1282926 L25.0909091,24.8636364 C25.0909091,25.4912327 24.5821418,26 23.9545455,26 L4.63636364,26 C4.00876733,26 3.5,25.4912327 3.5,24.8636364 L3.5,24.1282926 C3.5,23.3670826 4.06608058,22.4798976 4.76602001,22.1459252 L11.1982395,19.0768256 C12.1311104,18.6317111 12.3480217,17.6458472 11.6743696,16.8651543 L11.2635372,16.3890422 C10.4276337,15.4203168 9.75,13.6105516 9.75,12.3436561 L9.75,10.4439782 C9.75,7.98963681 11.7901774,6 14.2954545,6 Z M28.5,18.7777778 L28.5,20.4444444 L25.0909091,20.4444444 L25.0909091,18.7777778 L28.5,18.7777778 Z M28.5,15.4444444 L28.5,17.1111111 L22.8181818,17.1111111 L22.8181818,15.4444444 L28.5,15.4444444 Z M28.5,12.1111111 L28.5,13.7777778 L20.5454545,13.7777778 L20.5454545,12.1111111 L28.5,12.1111111 Z" id="Contact_Active" fill="#000000"></path>
    </g>
</svg>