<?xml version="1.0" encoding="UTF-8"?>
<svg width="32px" height="32px" viewBox="0 0 32 32" version="1.1" xmlns="http://www.w3.org/2000/svg" xmlns:xlink="http://www.w3.org/1999/xlink">
    <!-- Generator: Sketch 61.2 (89653) - https://sketch.com -->
    <title>Icons/Navigation Bar/Collection - Active</title>
    <desc>Created with Sketch.</desc>
    <g id="Icons/Navigation-Bar/Collection---Active" stroke="none" stroke-width="1" fill="none" fill-rule="evenodd">
        <rect id="Icon-Background" fill-opacity="0" fill="#000000" x="0" y="0" width="32" height="32"></rect>
        <path d="M26.0656449,9.59773706 L16.5,15.081909 L6.93433449,9.59772524 C6.95826412,9.58222621 6.98242375,9.56753827 7.00678414,9.55371077 L15.4932159,4.7366227 C16.0492474,4.42100679 16.9511719,4.42124477 17.5067841,4.7366227 L25.9932159,9.55371077 C26.0175705,9.56753502 26.0417232,9.58222728 26.0656449,9.59773706 L26.0656449,9.59773706 Z M26.9878931,11.0756128 C26.9958631,11.1371961 27,11.1979483 27,11.2573415 L27,20.9130951 C27,21.5383685 26.5488281,22.3013479 25.9932159,22.6167258 L17.5067841,27.4338139 C17.4647345,27.4576822 17.4207066,27.4797442 17.375,27.5 L17.375,16.586873 L26.9878931,11.0756128 L26.9878931,11.0756128 Z M15.625,27.4999966 C15.5792888,27.4797405 15.5352608,27.4576795 15.4932159,27.4338139 L7.00678414,22.6167258 C6.45075261,22.3011099 6,21.5330622 6,20.9130951 L6,11.2573415 C6,11.1978181 6.00408863,11.1370467 6.01196677,11.0755324 L15.625,16.586873 L15.625,27.4999966 L15.625,27.4999966 Z" id="Collection_Active" fill="#000000"></path>
    </g>
</svg>