<?xml version="1.0" encoding="UTF-8"?>
<svg width="32px" height="32px" viewBox="0 0 32 32" version="1.1" xmlns="http://www.w3.org/2000/svg" xmlns:xlink="http://www.w3.org/1999/xlink">
    <!-- Generator: Sketch 61.2 (89653) - https://sketch.com -->
    <title>Icons/Navigation Bar/Collection</title>
    <desc>Created with Sketch.</desc>
    <g id="Icons/Navigation-Bar/Collection" stroke="none" stroke-width="1" fill="none" fill-rule="evenodd">
        <rect id="Icon-Background" fill-opacity="0" fill="#000000" x="0" y="0" width="32" height="32"></rect>
        <path d="M16.958842,4.73488215 L25.041158,9.51653679 C25.5707118,9.8298311 26,10.5922292 26,11.207636 L26,20.792364 C26,21.413038 25.5703125,22.1704051 25.041158,22.4834632 L16.958842,27.2651178 C16.4292882,27.5784122 15.5703125,27.5781759 15.041158,27.2651178 L6.95884204,22.4834632 C6.4292882,22.1701689 6,21.4077708 6,20.792364 L6,11.207636 C6,10.586962 6.4296875,9.82959487 6.95884204,9.51653679 L15.041158,4.73488215 C15.5707118,4.42158785 16.4296875,4.42182408 16.958842,4.73488215 Z M7.333,11.705 L7.33333333,20.792364 C7.33333333,20.9288468 7.51247095,21.2454696 7.63067007,21.3153985 L15.333,25.873 L15.333,16.39 L7.333,11.705 Z M24.666,11.705 L16.666,16.39 L16.666,25.873 L24.3693299,21.3153985 C24.4892579,21.2444468 24.6666667,20.9316126 24.6666667,20.792364 L24.666,11.705 Z M15.712986,5.9029469 L7.941,10.5 L16,15.219 L24.058,10.5 L16.287014,5.9029469 C16.1728347,5.83539619 15.827215,5.83536679 15.712986,5.9029469 Z" id="Collection" fill="#000000"></path>
    </g>
</svg>