<?xml version="1.0" encoding="UTF-8"?>
<svg width="32px" height="32px" viewBox="0 0 32 32" version="1.1" xmlns="http://www.w3.org/2000/svg" xmlns:xlink="http://www.w3.org/1999/xlink">
    <!-- Generator: Sketch 61.2 (89653) - https://sketch.com -->
    <title>Icons/Navigation Bar/Chat</title>
    <desc>Created with Sketch.</desc>
    <g id="Icons/Navigation-Bar/Chat" stroke="none" stroke-width="1" fill="none" fill-rule="evenodd">
        <rect id="Icon-Background" fill-opacity="0" fill="#000000" x="0" y="0" width="32" height="32"></rect>
        <path d="M12.1675711,23.2854573 L12.6733256,23.4338122 C13.7328228,23.7445985 14.8525405,23.9053715 16,23.9053715 C21.6343447,23.9053715 26.12,20.0431739 26.12,15.4016239 C26.12,10.7600739 21.6343447,6.89787632 16,6.89787632 C10.3656553,6.89787632 5.88,10.7600739 5.88,15.4016239 C5.88,17.8198611 7.09547007,20.0916106 9.21568405,21.705304 L9.84894876,22.1872813 L9.57862261,24.5429667 L12.1675711,23.2854573 Z M16,25.3032478 C14.7016692,25.3032478 13.4535902,25.1179982 12.2894723,24.7765231 L8.85907622,26.4427422 C8.76115563,26.4903044 8.6519402,26.5088054 8.54407042,26.4961041 C8.22863065,26.458962 8.00264078,26.1698254 8.03930791,25.8502995 L8.3867197,22.8228717 C6.00304776,21.0086607 4.5,18.3562737 4.5,15.4016239 C4.5,9.93310803 9.64872538,5.5 16,5.5 C22.3512746,5.5 27.5,9.93310803 27.5,15.4016239 C27.5,20.8701398 22.3512746,25.3032478 16,25.3032478 Z" id="Chat" fill="#000000"></path>
    </g>
</svg>