<?xml version="1.0" encoding="UTF-8"?>
<svg width="32px" height="32px" viewBox="0 0 32 32" version="1.1" xmlns="http://www.w3.org/2000/svg" xmlns:xlink="http://www.w3.org/1999/xlink">
    <!-- Generator: Sketch 61.2 (89653) - https://sketch.com -->
    <title>Icons/Navigation Bar/MiniProgram</title>
    <desc>Created with Sketch.</desc>
    <g id="Icons/Navigation-Bar/MiniProgram" stroke="none" stroke-width="1" fill="none" fill-rule="evenodd">
        <rect id="Icon-Background" fill-opacity="0" fill="#000000" x="0" y="0" width="32" height="32"></rect>
        <path d="M16,4.5 C22.3512746,4.5 27.5,9.64872538 27.5,16 C27.5,22.3512746 22.3512746,27.5 16,27.5 C9.64872538,27.5 4.5,22.3512746 4.5,16 C4.5,9.64872538 9.64872538,4.5 16,4.5 Z M16,5.88 C10.4108783,5.88 5.88,10.4108783 5.88,16 C5.88,21.5891217 10.4108783,26.12 16,26.12 C21.5891217,26.12 26.12,21.5891217 26.12,16 C26.12,10.4108783 21.5891217,5.88 16,5.88 Z M18.934242,10.135 C20.9184935,10.135 22.5340905,11.5834662 22.5340905,13.3863636 C22.5340905,14.9830709 21.3050787,16.3074371 19.6160674,16.6011781 L19.4569693,16.6028788 C18.9928798,16.6028788 18.7238897,16.2772592 18.8982373,15.8850023 C19.0215356,15.5973063 19.3021787,15.370633 19.6390765,15.2957863 C20.6188547,15.0592881 21.2934844,14.2896401 21.2934844,13.3863636 C21.2934844,12.2988281 20.2621542,11.4104545 18.9690905,11.4104545 C17.6760268,11.4104545 16.6446965,12.2988281 16.6446965,13.3863636 L16.6446965,18.6136364 C16.6446965,20.4165338 15.0290996,21.865 13.044848,21.865 C11.0605965,21.865 9.44499956,20.4165338 9.44499956,18.6136364 C9.44499956,17.033987 10.6944921,15.6875511 12.3827268,15.4319697 L12.5221208,15.4319697 C12.8789774,15.4319697 13.1249996,15.6391463 13.1249996,15.930303 C13.1251471,15.9809618 13.1241991,16.0056082 13.1190788,16.0363301 C13.1125491,16.0755086 13.0997368,16.1125219 13.0808528,16.1498462 C12.9638328,16.4228927 12.6602608,16.6590043 12.3400135,16.7390622 C11.3655229,16.974284 10.6856056,17.7403881 10.6856056,18.6136364 C10.6856056,19.7011719 11.7169358,20.5895455 13.0099996,20.5895455 C14.3030633,20.5895455 15.3343935,19.7011719 15.3343935,18.6136364 L15.3343935,13.3863636 C15.3343935,11.5834662 16.9499904,10.135 18.934242,10.135 Z" id="MiniProgram" fill="#000000"></path>
    </g>
</svg>