<?xml version="1.0" encoding="UTF-8"?>
<svg width="32px" height="32px" viewBox="0 0 32 32" version="1.1" xmlns="http://www.w3.org/2000/svg" xmlns:xlink="http://www.w3.org/1999/xlink">
    <title>编组 16</title>
    <g id="页面-1" stroke="none" stroke-width="1" fill="none" fill-rule="evenodd">
        <g id="1.导航/基础导航/☾_navigationbar" transform="translate(-14.000000, -352.000000)">
            <g id="编组-16" transform="translate(14.000000, 352.000000)">
                <rect id="矩形" fill="#F7F7F7" opacity="0" x="0" y="0" width="32" height="32"></rect>
                <g id="icons/Nav/朋友圈/Default" transform="translate(4.750000, 4.750000)" fill="#000000" fill-opacity="0.5">
                    <path d="M11.25,0 C17.4632034,0 22.5,5.03679656 22.5,11.25 C22.5,15.9624531 19.6025407,19.9981683 15.4919457,21.672822 L15.4831069,21.6801659 C14.2716564,22.168459 12.9576464,22.4553624 11.5817028,22.4952036 L11.25,22.5 C5.03679656,22.5 0,17.4632034 0,11.25 C0,5.14774663 4.85851709,0.180260721 10.9182972,0.00479638207 L11.25,0 Z M7.88079019,14.0410688 L7.88039586,20.8007737 C8.93449955,21.1726707 10.0686215,21.375 11.25,21.375 C12.426905,21.375 13.5569107,21.1742001 14.607626,20.8049911 L8.25879121,14.4558502 C8.12828823,14.3208586 8.0000257,14.1848419 7.88079019,14.0410688 Z M10.8405481,15.6060923 L15.6205008,20.3857463 C17.6996452,19.3892937 19.3858161,17.7039839 20.3833653,15.6254654 L11.2703671,15.625 C11.2634687,15.6249848 11.2567361,15.625 11.25,15.625 C11.1119288,15.625 10.9753515,15.6186041 10.8405481,15.6060923 Z M6.89237558,10.8574077 L2.11949538,15.6314209 C3.11549735,17.7032335 4.79589907,19.383807 6.86758673,20.3800275 L6.86770885,11.2984167 C6.87509052,11.2828301 6.875,11.2664256 6.875,11.25 C6.875,11.1176818 6.88087404,10.9867355 6.89237558,10.8574077 Z M8.45201843,7.88653509 L1.69711577,7.88638406 C1.32656392,8.93879428 1.125,10.0708583 1.125,11.25 C1.125,12.4310057 1.32720167,13.5647847 1.69887431,14.6186062 L8.01986613,8.29922007 C8.15435055,8.152086 8.29875408,8.01417157 8.45201843,7.88653509 Z M20.8046402,7.89137554 L14.3809891,14.3096924 C14.2739915,14.4151857 14.1639764,14.5168089 14.0489681,14.6126431 L20.8032356,14.6126177 C21.1735635,13.5604899 21.375,12.428769 21.375,11.25 C21.375,10.0727222 21.1740728,8.94237348 20.8046402,7.89137554 Z M11.25,8 C9.45507456,8 8,9.45507456 8,11.25 C8,13.0449254 9.45507456,14.5 11.25,14.5 C13.0449254,14.5 14.5,13.0449254 14.5,11.25 C14.5,9.45507456 13.0449254,8 11.25,8 Z M15.6244726,2.11615832 L15.6248603,11.2146682 C15.6249534,11.2264345 15.625,11.2382118 15.625,11.25 L15.624,11.284 L15.625,11.4634407 C15.6167826,11.5278534 15.6123366,11.5913683 15.6065496,11.6544951 L20.3852703,6.87850615 C19.3885983,4.79948691 17.7031163,3.11348819 15.6244726,2.11615832 Z M11.25,1.125 C10.0645208,1.125 8.92662676,1.32873641 7.86942197,1.70310516 L14.0763014,7.91032186 C14.2703262,8.07468563 14.4498381,8.25565365 14.6126431,8.45103187 L14.6126177,1.69676436 C13.5604899,1.32643648 12.428769,1.125 11.25,1.125 Z M2.11663473,6.87453462 L11.25,6.87444227 C11.3765653,6.875 11.5018753,6.88037436 11.6257143,6.89090732 L6.85766626,2.12474968 C4.7885512,3.12251719 3.11068984,4.80329635 2.11663473,6.87453462 Z" id="形状结合"></path>
                </g>
            </g>
        </g>
    </g>
</svg>